<mxfile host="65bd71144e">
    <diagram id="tr8WCDj-hul7nBdrf4UF" name="Страница 1">
        <mxGraphModel dx="688" dy="648" grid="1" gridSize="10" guides="1" tooltips="1" connect="0" arrows="1" fold="1" page="1" pageScale="1" pageWidth="827" pageHeight="1169" math="0" shadow="0">
            <root>
                <mxCell id="0"/>
                <mxCell id="1" parent="0"/>
                <mxCell id="2" style="edgeStyle=orthogonalEdgeStyle;rounded=0;orthogonalLoop=1;jettySize=auto;html=1;" parent="1" source="3" target="4" edge="1">
                    <mxGeometry relative="1" as="geometry"/>
                </mxCell>
                <mxCell id="3" value="Запуск" style="rounded=1;whiteSpace=wrap;html=1;arcSize=50;" parent="1" vertex="1">
                    <mxGeometry x="305" y="20" width="140" height="40" as="geometry"/>
                </mxCell>
                <mxCell id="195" style="edgeStyle=none;html=1;" parent="1" source="4" edge="1">
                    <mxGeometry relative="1" as="geometry">
                        <mxPoint x="375" y="200" as="targetPoint"/>
                    </mxGeometry>
                </mxCell>
                <mxCell id="4" value="float a, b, c;" style="rounded=0;whiteSpace=wrap;html=1;" parent="1" vertex="1">
                    <mxGeometry x="315" y="120" width="120" height="50" as="geometry"/>
                </mxCell>
                <mxCell id="5" value="#include &amp;lt;iostream&amp;gt;&lt;br&gt;using namespace std;&lt;br&gt;int main() {&lt;br&gt;setlocale(LC_ALL, &quot;Russian&quot;);" style="strokeWidth=2;html=1;shape=mxgraph.flowchart.annotation_2;align=left;labelPosition=right;pointerEvents=1;" parent="1" vertex="1">
                    <mxGeometry x="455" y="50" width="20" height="60" as="geometry"/>
                </mxCell>
                <mxCell id="6" value="" style="endArrow=none;dashed=1;html=1;entryX=0;entryY=0.5;entryDx=0;entryDy=0;entryPerimeter=0;" parent="1" target="5" edge="1">
                    <mxGeometry width="50" height="50" relative="1" as="geometry">
                        <mxPoint x="375" y="80" as="sourcePoint"/>
                        <mxPoint x="465" y="70" as="targetPoint"/>
                    </mxGeometry>
                </mxCell>
                <mxCell id="7" value="Конец" style="rounded=1;whiteSpace=wrap;html=1;arcSize=50;" parent="1" vertex="1">
                    <mxGeometry x="300" y="1490" width="140" height="40" as="geometry"/>
                </mxCell>
                <mxCell id="10" value="return 0;&lt;br&gt;}" style="strokeWidth=2;html=1;shape=mxgraph.flowchart.annotation_2;align=left;labelPosition=right;pointerEvents=1;" parent="1" vertex="1">
                    <mxGeometry x="471.75" y="1440" width="20" height="60" as="geometry"/>
                </mxCell>
                <mxCell id="11" value="" style="endArrow=none;dashed=1;html=1;entryX=0;entryY=0.5;entryDx=0;entryDy=0;entryPerimeter=0;" parent="1" edge="1">
                    <mxGeometry width="50" height="50" relative="1" as="geometry">
                        <mxPoint x="371.75" y="1470" as="sourcePoint"/>
                        <mxPoint x="471.75" y="1470" as="targetPoint"/>
                    </mxGeometry>
                </mxCell>
                <mxCell id="236" style="edgeStyle=none;html=1;" parent="1" source="234" edge="1">
                    <mxGeometry relative="1" as="geometry">
                        <mxPoint x="375" y="280" as="targetPoint"/>
                    </mxGeometry>
                </mxCell>
                <mxCell id="234" value="float fA, fB, fC;" style="rounded=0;whiteSpace=wrap;html=1;" parent="1" vertex="1">
                    <mxGeometry x="315" y="200" width="120" height="50" as="geometry"/>
                </mxCell>
                <mxCell id="368" value="" style="edgeStyle=orthogonalEdgeStyle;rounded=0;html=1;" edge="1" parent="1" source="252" target="367">
                    <mxGeometry relative="1" as="geometry"/>
                </mxCell>
                <mxCell id="252" value="double eps = 0.000001;" style="rounded=0;whiteSpace=wrap;html=1;" parent="1" vertex="1">
                    <mxGeometry x="315" y="280" width="120" height="50" as="geometry"/>
                </mxCell>
                <mxCell id="366" style="edgeStyle=orthogonalEdgeStyle;rounded=0;html=1;" parent="1" target="7" edge="1">
                    <mxGeometry relative="1" as="geometry">
                        <mxPoint x="370.0999999999999" y="1430" as="sourcePoint"/>
                    </mxGeometry>
                </mxCell>
                <mxCell id="370" value="" style="edgeStyle=orthogonalEdgeStyle;rounded=0;html=1;" edge="1" parent="1" source="367" target="369">
                    <mxGeometry relative="1" as="geometry"/>
                </mxCell>
                <mxCell id="367" value="a = 1;" style="rounded=0;whiteSpace=wrap;html=1;" vertex="1" parent="1">
                    <mxGeometry x="315" y="360" width="120" height="50" as="geometry"/>
                </mxCell>
                <mxCell id="372" style="edgeStyle=orthogonalEdgeStyle;rounded=0;html=1;" edge="1" parent="1" source="369" target="371">
                    <mxGeometry relative="1" as="geometry"/>
                </mxCell>
                <mxCell id="369" value="b = 2;" style="rounded=0;whiteSpace=wrap;html=1;" vertex="1" parent="1">
                    <mxGeometry x="315" y="440" width="120" height="50" as="geometry"/>
                </mxCell>
                <mxCell id="374" value="1" style="edgeStyle=orthogonalEdgeStyle;rounded=0;html=1;" edge="1" parent="1" source="371" target="373">
                    <mxGeometry relative="1" as="geometry"/>
                </mxCell>
                <mxCell id="398" value="0" style="edgeStyle=orthogonalEdgeStyle;rounded=0;html=1;" edge="1" parent="1" source="371" target="397">
                    <mxGeometry x="-0.9222" relative="1" as="geometry">
                        <Array as="points">
                            <mxPoint x="900" y="560"/>
                            <mxPoint x="900" y="1360"/>
                            <mxPoint x="370" y="1360"/>
                        </Array>
                        <mxPoint as="offset"/>
                    </mxGeometry>
                </mxCell>
                <mxCell id="371" value="&amp;nbsp;while (b - a &amp;gt; eps)" style="shape=hexagon;perimeter=hexagonPerimeter2;whiteSpace=wrap;html=1;fixedSize=1;" vertex="1" parent="1">
                    <mxGeometry x="290" y="530" width="170" height="60" as="geometry"/>
                </mxCell>
                <mxCell id="379" style="edgeStyle=orthogonalEdgeStyle;rounded=0;html=1;" edge="1" parent="1" source="373" target="375">
                    <mxGeometry relative="1" as="geometry"/>
                </mxCell>
                <mxCell id="373" value="c = (a + b) / 2;" style="rounded=0;whiteSpace=wrap;html=1;" vertex="1" parent="1">
                    <mxGeometry x="315" y="630" width="120" height="50" as="geometry"/>
                </mxCell>
                <mxCell id="380" style="edgeStyle=orthogonalEdgeStyle;rounded=0;html=1;" edge="1" parent="1" source="375" target="376">
                    <mxGeometry relative="1" as="geometry"/>
                </mxCell>
                <mxCell id="375" value="fA = (pow(a, 3) - a - 1);" style="rounded=0;whiteSpace=wrap;html=1;" vertex="1" parent="1">
                    <mxGeometry x="315" y="710" width="120" height="50" as="geometry"/>
                </mxCell>
                <mxCell id="381" style="edgeStyle=orthogonalEdgeStyle;rounded=0;html=1;" edge="1" parent="1" source="376" target="377">
                    <mxGeometry relative="1" as="geometry"/>
                </mxCell>
                <mxCell id="376" value="fB = (pow(b, 3) - b - 1);" style="rounded=0;whiteSpace=wrap;html=1;" vertex="1" parent="1">
                    <mxGeometry x="315" y="790" width="120" height="50" as="geometry"/>
                </mxCell>
                <mxCell id="383" style="edgeStyle=orthogonalEdgeStyle;rounded=0;html=1;" edge="1" parent="1" source="377" target="382">
                    <mxGeometry relative="1" as="geometry"/>
                </mxCell>
                <mxCell id="377" value="fC = (pow(c, 3) - c - 1);" style="rounded=0;whiteSpace=wrap;html=1;" vertex="1" parent="1">
                    <mxGeometry x="315" y="870" width="120" height="50" as="geometry"/>
                </mxCell>
                <mxCell id="386" value="1" style="edgeStyle=orthogonalEdgeStyle;rounded=0;html=1;" edge="1" parent="1" source="382" target="385">
                    <mxGeometry relative="1" as="geometry">
                        <Array as="points">
                            <mxPoint x="230" y="980"/>
                        </Array>
                    </mxGeometry>
                </mxCell>
                <mxCell id="387" value="0" style="edgeStyle=orthogonalEdgeStyle;rounded=0;html=1;" edge="1" parent="1" source="382" target="384">
                    <mxGeometry relative="1" as="geometry">
                        <Array as="points">
                            <mxPoint x="535" y="980"/>
                        </Array>
                    </mxGeometry>
                </mxCell>
                <mxCell id="382" value="&amp;nbsp;if (fA * fC &amp;lt; 0)" style="rhombus;whiteSpace=wrap;html=1;" vertex="1" parent="1">
                    <mxGeometry x="285" y="950" width="180" height="60" as="geometry"/>
                </mxCell>
                <mxCell id="389" value="1" style="edgeStyle=orthogonalEdgeStyle;rounded=0;html=1;" edge="1" parent="1" source="384" target="388">
                    <mxGeometry relative="1" as="geometry">
                        <Array as="points">
                            <mxPoint x="385" y="1050"/>
                        </Array>
                    </mxGeometry>
                </mxCell>
                <mxCell id="391" value="0" style="edgeStyle=orthogonalEdgeStyle;rounded=0;html=1;" edge="1" parent="1" source="384" target="390">
                    <mxGeometry relative="1" as="geometry">
                        <Array as="points">
                            <mxPoint x="708" y="1050"/>
                        </Array>
                    </mxGeometry>
                </mxCell>
                <mxCell id="384" value="if (fC * fB &amp;lt; 0)" style="rhombus;whiteSpace=wrap;html=1;" vertex="1" parent="1">
                    <mxGeometry x="445" y="1020" width="180" height="60" as="geometry"/>
                </mxCell>
                <mxCell id="395" style="edgeStyle=orthogonalEdgeStyle;rounded=0;html=1;" edge="1" parent="1" source="385">
                    <mxGeometry relative="1" as="geometry">
                        <mxPoint x="370" y="1280" as="targetPoint"/>
                        <Array as="points">
                            <mxPoint x="230" y="1280"/>
                        </Array>
                    </mxGeometry>
                </mxCell>
                <mxCell id="385" value="&amp;nbsp;b = c;" style="rounded=0;whiteSpace=wrap;html=1;" vertex="1" parent="1">
                    <mxGeometry x="170" y="1025" width="120" height="50" as="geometry"/>
                </mxCell>
                <mxCell id="392" style="edgeStyle=orthogonalEdgeStyle;rounded=0;html=1;" edge="1" parent="1" source="388">
                    <mxGeometry relative="1" as="geometry">
                        <mxPoint x="530" y="1190" as="targetPoint"/>
                        <Array as="points">
                            <mxPoint x="385" y="1190"/>
                        </Array>
                    </mxGeometry>
                </mxCell>
                <mxCell id="388" value="&amp;nbsp;b = c;" style="rounded=0;whiteSpace=wrap;html=1;" vertex="1" parent="1">
                    <mxGeometry x="325" y="1090" width="120" height="50" as="geometry"/>
                </mxCell>
                <mxCell id="393" style="edgeStyle=orthogonalEdgeStyle;rounded=0;html=1;" edge="1" parent="1" source="390">
                    <mxGeometry relative="1" as="geometry">
                        <mxPoint x="530" y="1190" as="targetPoint"/>
                        <Array as="points">
                            <mxPoint x="708" y="1190"/>
                        </Array>
                    </mxGeometry>
                </mxCell>
                <mxCell id="390" value="cout &amp;lt;&amp;lt; &quot;Что-то не то!&quot; &amp;lt;&amp;lt; endl;" style="shape=parallelogram;perimeter=parallelogramPerimeter;whiteSpace=wrap;html=1;fixedSize=1;" vertex="1" parent="1">
                    <mxGeometry x="550" y="1095" width="316.5" height="40" as="geometry"/>
                </mxCell>
                <mxCell id="394" value="" style="endArrow=classic;html=1;rounded=0;" edge="1" parent="1">
                    <mxGeometry width="50" height="50" relative="1" as="geometry">
                        <mxPoint x="530" y="1190" as="sourcePoint"/>
                        <mxPoint x="370" y="1280" as="targetPoint"/>
                        <Array as="points">
                            <mxPoint x="530" y="1280"/>
                        </Array>
                    </mxGeometry>
                </mxCell>
                <mxCell id="396" value="" style="endArrow=classic;html=1;entryX=-0.006;entryY=0.5;entryDx=0;entryDy=0;entryPerimeter=0;rounded=0;" edge="1" parent="1" target="371">
                    <mxGeometry width="50" height="50" relative="1" as="geometry">
                        <mxPoint x="370" y="1280" as="sourcePoint"/>
                        <mxPoint x="460" y="1140" as="targetPoint"/>
                        <Array as="points">
                            <mxPoint x="370" y="1330"/>
                            <mxPoint x="110" y="1330"/>
                            <mxPoint x="110" y="560"/>
                        </Array>
                    </mxGeometry>
                </mxCell>
                <mxCell id="397" value="cout &amp;lt;&amp;lt; &quot;Что-то не то!&quot; &amp;lt;&amp;lt; endl;" style="shape=parallelogram;perimeter=parallelogramPerimeter;whiteSpace=wrap;html=1;fixedSize=1;" vertex="1" parent="1">
                    <mxGeometry x="211.75" y="1390" width="316.5" height="40" as="geometry"/>
                </mxCell>
            </root>
        </mxGraphModel>
    </diagram>
</mxfile>